<svg xmlns="http://www.w3.org/2000/svg" xmlns:xlink="http://www.w3.org/1999/xlink" width="13.356" height="16.444" viewBox="0 0 13.356 16.444"><defs><style>.a{fill:url(#a);}</style><linearGradient id="a" x1="5.133" y1="-0.41" x2="-8.041" y2="1.242" gradientUnits="objectBoundingBox"><stop offset="0" stop-color="#9a1616"/><stop offset="1" stop-color="#e97979"/></linearGradient></defs><path class="a" d="M222.783,154.7a.385.385,0,0,0-.385.385v7.278a.385.385,0,1,0,.77,0v-7.278A.385.385,0,0,0,222.783,154.7Zm0,0" transform="translate(-213.833 -148.745)"/><path class="a" d="M104.783,154.7a.385.385,0,0,0-.385.385v7.278a.385.385,0,1,0,.77,0v-7.278A.385.385,0,0,0,104.783,154.7Zm0,0" transform="translate(-100.377 -148.745)"/><path class="a" d="M1.09,4.894v9.488a2.125,2.125,0,0,0,.565,1.465,1.9,1.9,0,0,0,1.376.595h7.286a1.9,1.9,0,0,0,1.376-.595,2.125,2.125,0,0,0,.565-1.465V4.894A1.471,1.471,0,0,0,11.881,2H9.909V1.52A1.513,1.513,0,0,0,8.384,0H4.965A1.513,1.513,0,0,0,3.44,1.52V2H1.468A1.471,1.471,0,0,0,1.09,4.894Zm9.227,10.778H3.031a1.22,1.22,0,0,1-1.171-1.29V4.928h9.628v9.454a1.22,1.22,0,0,1-1.171,1.29ZM4.21,1.52A.742.742,0,0,1,4.965.769h3.42a.742.742,0,0,1,.755.751V2H4.21ZM1.468,2.771H11.881a.693.693,0,0,1,0,1.386H1.468a.693.693,0,1,1,0-1.386Zm0,0" transform="translate(0.003 0.002)"/><path class="a" d="M163.783,154.7a.385.385,0,0,0-.385.385v7.278a.385.385,0,1,0,.77,0v-7.278A.385.385,0,0,0,163.783,154.7Zm0,0" transform="translate(-157.105 -148.745)"/></svg>