<svg xmlns="http://www.w3.org/2000/svg" xmlns:xlink="http://www.w3.org/1999/xlink" width="16.318" height="16.236" viewBox="0 0 16.318 16.236"><defs><style>.a{fill:url(#a);}</style><linearGradient id="a" x1="1" x2="0" y2="0.923" gradientUnits="objectBoundingBox"><stop offset="0" stop-color="#166b9a"/><stop offset="1" stop-color="#1b8fcf"/></linearGradient></defs><path class="a" d="M15.061,47.78a.406.406,0,0,0-.406.406v3.609a1.22,1.22,0,0,1-1.219,1.219H2.032A1.22,1.22,0,0,1,.813,51.795V41.2a1.221,1.221,0,0,1,1.219-1.219H5.641a.406.406,0,1,0,0-.813H2.032A2.034,2.034,0,0,0,0,41.2V51.8a2.034,2.034,0,0,0,2.032,2.032h11.4A2.034,2.034,0,0,0,15.468,51.8V48.186a.406.406,0,0,0-.406-.406Zm0,0" transform="translate(0 -37.591)"/><path class="a" d="M119.1.8a1.829,1.829,0,0,0-2.586,0l-7.251,7.251a.406.406,0,0,0-.1.179l-.953,3.442a.406.406,0,0,0,.5.5l3.442-.954a.406.406,0,0,0,.179-.1l7.25-7.251a1.831,1.831,0,0,0,0-2.586Zm-8.952,7.515,5.934-5.934L118,4.291l-5.934,5.934Zm-.382.767,1.529,1.529-2.115.586ZM119,3.285l-.431.431L116.657,1.8l.431-.431a1.016,1.016,0,0,1,1.437,0l.477.477A1.017,1.017,0,0,1,119,3.285Zm0,0" transform="translate(-103.793 -0.261)"/></svg>