<svg xmlns="http://www.w3.org/2000/svg" width="20" height="14.218" viewBox="0 0 20 14.218"><g transform="translate(0 -4.482)"><g transform="translate(3.187 11.209)"><path d="M23.072,19.426a.334.334,0,0,1-.231-.092l-3.88-3.64a.337.337,0,1,1,.462-.491l3.88,3.64a.337.337,0,0,1-.231.583Z" transform="translate(-9.784 -15.111)"/><path d="M5.739,19.426a.337.337,0,0,1-.231-.583L9.389,15.2a.337.337,0,1,1,.462.491L5.97,19.334A.334.334,0,0,1,5.739,19.426Z" transform="translate(-5.402 -15.112)"/></g><path d="M18.388,18.7H1.612A1.614,1.614,0,0,1,0,17.088V6.094A1.614,1.614,0,0,1,1.612,4.482H18.388A1.614,1.614,0,0,1,20,6.094V17.088A1.614,1.614,0,0,1,18.388,18.7ZM1.612,5.127a.969.969,0,0,0-.967.967V17.088a.969.969,0,0,0,.967.967H18.388a.969.969,0,0,0,.967-.967V6.094a.969.969,0,0,0-.967-.967Z" transform="translate(0 0)"/><path d="M10.214,13.868a1.751,1.751,0,0,1-1.182-.446L.769,5.87a.349.349,0,0,1-.032-.476.314.314,0,0,1,.454-.032l8.264,7.552a1.162,1.162,0,0,0,1.517,0l8.253-7.54a.312.312,0,0,1,.454.032.349.349,0,0,1-.031.476L11.4,13.421A1.749,1.749,0,0,1,10.214,13.868Z" transform="translate(-0.214 -0.26)"/></g></svg>