<svg xmlns="http://www.w3.org/2000/svg" width="93" height="24" viewBox="0 0 93 24"><defs><style>.a,.b{fill:#fff;}.b{font-size:18px;font-family:OpenSans-Regular, Open Sans;}</style></defs><g transform="translate(0 0)"><g transform="translate(0 3)"><path class="a" d="M29.375,96H.625a.7.7,0,0,0,0,1.4h28.75a.7.7,0,0,0,0-1.4Z" transform="translate(0 -96)"/></g><g transform="translate(0 11.676)"><g transform="translate(0 0)"><path class="a" d="M29.375,245.333H.625a.7.7,0,0,0,0,1.4h28.75a.7.7,0,0,0,0-1.4Z" transform="translate(0 -245.333)"/></g></g><g transform="translate(0 20.352)"><g transform="translate(0 0)"><path class="a" d="M29.375,394.667H.625a.7.7,0,0,0,0,1.4h28.75a.7.7,0,0,0,0-1.4Z" transform="translate(0 -394.667)"/></g></g><text class="b" transform="translate(40 19)"><tspan x="0" y="0">MENU</tspan></text></g></svg>