<?xml version="1.0" encoding="UTF-8"?>
<svg xmlns="http://www.w3.org/2000/svg" xmlns:xlink="http://www.w3.org/1999/xlink" width="48pt" height="48pt" viewBox="0 0 48 48" version="1.1">
<g id="surface18317954">
<path style=" stroke:none;fill-rule:nonzero;fill:rgb(100%,100%,100%);fill-opacity:1;" d="M 44 40 L 40 44 L 28 32 L 28 28 L 32 28 Z M 44 40 "/>
<path style=" stroke:none;fill-rule:nonzero;fill:rgb(100%,100%,100%);fill-opacity:1;" d="M 18 32 C 10.199219 32 4 25.800781 4 18 C 4 10.199219 10.199219 4 18 4 C 25.800781 4 32 10.199219 32 18 C 32 25.800781 25.800781 32 18 32 Z M 18 8 C 12.398438 8 8 12.398438 8 18 C 8 23.601562 12.398438 28 18 28 C 23.601562 28 28 23.601562 28 18 C 28 12.398438 23.601562 8 18 8 Z M 18 8 "/>
<path style=" stroke:none;fill-rule:nonzero;fill:rgb(100%,100%,100%);fill-opacity:1;" d="M 25.246094 26.800781 L 26.660156 25.386719 L 31.609375 30.339844 L 30.195312 31.753906 Z M 25.246094 26.800781 "/>
</g>
</svg>
