<svg xmlns="http://www.w3.org/2000/svg" width="57.97" height="35.212" viewBox="0 0 57.97 35.212"><defs><style>.a{fill:#fff;}</style></defs><path class="a" d="M247.691,326.463l-.128-.273H218.948a12.709,12.709,0,0,0-7.959,2.378,9.147,9.147,0,0,0-3.339,7.5,8.642,8.642,0,0,0,3.042,6.911,10.7,10.7,0,0,0-3.234,3.367,10.022,10.022,0,0,0,2,12.552c2.563,2.267,4.859,2.5,9.488,2.5H238.6V345.9H251.39l7.127,15.5h5.543Zm-14.118,29.955H218.952c-4.143,0-5.1-.407-6.175-1.275a4.53,4.53,0,0,1-1.7-3.71c0-3.673,2.653-5.534,7.874-5.534h14.616Zm0-15.5H218.952a7.719,7.719,0,0,1-4.471-1.156,4.836,4.836,0,0,1,1.112-8.2,9.165,9.165,0,0,1,3.127-.379h14.849Zm5.03,0v-9.74h6.027l4.468,9.74Z" transform="translate(-206.09 -326.19)"/></svg>