<svg xmlns="http://www.w3.org/2000/svg" width="18.832" height="18.832" viewBox="0 0 18.832 18.832"><defs><style>.a{fill:#f5f5f5;}.b{fill:#ff4b55;}.c{fill:#41479b;}</style></defs><g transform="translate(0 1.449)"><rect class="a" width="18.832" height="1.448" transform="translate(0 2.897)"/><path class="a" d="M22.677,39.385H5.812a4.112,4.112,0,0,0-.8,1.449H23.476A4.112,4.112,0,0,0,22.677,39.385Z" transform="translate(-4.829 -39.385)"/><rect class="a" width="18.832" height="1.448" transform="translate(0 5.794)"/><rect class="a" width="18.832" height="1.448" transform="translate(0 8.691)"/><rect class="a" width="18.832" height="1.448" transform="translate(0 11.589)"/><path class="a" d="M23.476,433.231H5.013a4.111,4.111,0,0,0,.8,1.449H22.677A4.111,4.111,0,0,0,23.476,433.231Z" transform="translate(-4.829 -418.745)"/></g><g transform="translate(0 0)"><path class="b" d="M40.465,0H29.872a4.11,4.11,0,0,0-3.136,1.449H43.6A4.11,4.11,0,0,0,40.465,0Z" transform="translate(-25.753 0)"/><rect class="b" width="18.832" height="1.448" transform="translate(0 5.794)"/><path class="b" d="M18.832,79.992a4.117,4.117,0,0,0-.184-1.222H.184A4.117,4.117,0,0,0,0,79.992v.226H18.832Z" transform="translate(0 -75.873)"/><rect class="b" width="18.832" height="1.448" transform="translate(0 8.692)"/><path class="b" d="M18.832,394.072v-.226H0v.226a4.118,4.118,0,0,0,.184,1.222H18.647A4.118,4.118,0,0,0,18.832,394.072Z" transform="translate(0 -379.36)"/><path class="b" d="M43.6,472.615H26.736a4.11,4.11,0,0,0,3.136,1.449H40.465A4.11,4.11,0,0,0,43.6,472.615Z" transform="translate(-25.753 -455.232)"/><rect class="b" width="18.832" height="1.448" transform="translate(0 11.589)"/></g><path class="c" d="M10.14,0H4.119A4.119,4.119,0,0,0,0,4.119V10.14H10.14Z" transform="translate(0 0)"/><g transform="translate(0.956 0.883)"><path class="a" d="M29.7,28.122a.033.033,0,0,0,.051.037l.2-.144.2.144a.033.033,0,0,0,.051-.037l-.074-.235.2-.147a.033.033,0,0,0-.02-.06l-.247,0-.042-.126a4.139,4.139,0,0,0-.3.292l.058.043Z" transform="translate(-29.564 -27.42)"/><path class="a" d="M26.419,77.159l.078.234.247,0a.033.033,0,0,1,.02.06l-.2.147.074.235a.033.033,0,0,1-.051.037l-.2-.144-.2.144a.033.033,0,0,1-.051-.037l.074-.235-.2-.147a.033.033,0,0,1,.019-.06l.247,0,.078-.234A.033.033,0,0,1,26.419,77.159Z" transform="translate(-25.997 -75.182)"/><path class="a" d="M26.419,136.092l.078.234.247,0a.033.033,0,0,1,.02.06l-.2.147.074.235a.033.033,0,0,1-.051.037l-.2-.144-.2.144a.033.033,0,0,1-.051-.037l.074-.235-.2-.147a.033.033,0,0,1,.019-.06l.247,0,.078-.234A.033.033,0,0,1,26.419,136.092Z" transform="translate(-25.997 -131.947)"/><path class="a" d="M26.419,190.238l.078.234.247,0a.033.033,0,0,1,.02.06l-.2.147.074.235a.033.033,0,0,1-.051.037l-.2-.144-.2.144a.033.033,0,0,1-.051-.037l.074-.235-.2-.147a.033.033,0,0,1,.019-.06l.247,0,.078-.234A.033.033,0,0,1,26.419,190.238Z" transform="translate(-25.997 -184.102)"/><path class="a" d="M26.419,239.51l.078.234.247,0a.033.033,0,0,1,.02.06l-.2.147.074.235a.033.033,0,0,1-.051.037l-.2-.144-.2.144a.033.033,0,0,1-.051-.037l.074-.235-.2-.147a.033.033,0,0,1,.019-.06l.247,0,.078-.234A.033.033,0,0,1,26.419,239.51Z" transform="translate(-25.997 -231.562)"/><path class="a" d="M52.284,49.185l.078.234.247,0a.033.033,0,0,1,.02.06l-.2.147.074.235a.033.033,0,0,1-.051.037l-.2-.144-.2.144A.033.033,0,0,1,52,49.863l.074-.235-.2-.147a.033.033,0,0,1,.019-.06l.247,0,.078-.234A.033.033,0,0,1,52.284,49.185Z" transform="translate(-50.912 -48.237)"/><path class="a" d="M52.282,108.118l.078.234.247,0a.033.033,0,0,1,.02.06l-.2.147.074.235a.033.033,0,0,1-.051.037l-.2-.144-.2.144A.033.033,0,0,1,52,108.8l.074-.235-.2-.147a.033.033,0,0,1,.019-.06l.247,0,.078-.234A.033.033,0,0,1,52.282,108.118Z" transform="translate(-50.91 -105.002)"/><path class="a" d="M52.282,164.11l.078.234.247,0a.033.033,0,0,1,.02.06l-.2.147.074.235a.033.033,0,0,1-.051.037l-.2-.144-.2.144a.033.033,0,0,1-.051-.037l.074-.235-.2-.147a.033.033,0,0,1,.019-.06l.247,0,.078-.234A.033.033,0,0,1,52.282,164.11Z" transform="translate(-50.91 -158.935)"/><path class="a" d="M52.282,214.391l.078.234.247,0a.033.033,0,0,1,.02.06l-.2.147.074.235a.033.033,0,0,1-.051.037l-.2-.144-.2.144a.033.033,0,0,1-.051-.037l.074-.235-.2-.147a.033.033,0,0,1,.019-.06l.247,0,.078-.234A.033.033,0,0,1,52.282,214.391Z" transform="translate(-50.91 -207.366)"/><path class="a" d="M78.145,24.023l.078.234.247,0a.033.033,0,0,1,.02.06l-.2.147.074.235a.033.033,0,0,1-.051.037l-.2-.144-.2.144a.033.033,0,0,1-.051-.037l.074-.235-.2-.147a.033.033,0,0,1,.02-.06l.247,0,.078-.234A.033.033,0,0,1,78.145,24.023Z" transform="translate(-75.822 -24)"/><path class="a" d="M78.145,77.159l.078.234.247,0a.033.033,0,0,1,.02.06l-.2.147.074.235a.033.033,0,0,1-.051.037l-.2-.144-.2.144a.033.033,0,0,1-.051-.037l.074-.235-.2-.147a.033.033,0,0,1,.02-.06l.247,0,.078-.234A.033.033,0,0,1,78.145,77.159Z" transform="translate(-75.822 -75.182)"/><path class="a" d="M78.145,136.092l.078.234.247,0a.033.033,0,0,1,.02.06l-.2.147.074.235a.033.033,0,0,1-.051.037l-.2-.144-.2.144a.033.033,0,0,1-.051-.037l.074-.235-.2-.147a.033.033,0,0,1,.02-.06l.247,0,.078-.234A.033.033,0,0,1,78.145,136.092Z" transform="translate(-75.822 -131.947)"/><path class="a" d="M78.145,190.238l.078.234.247,0a.033.033,0,0,1,.02.06l-.2.147.074.235a.033.033,0,0,1-.051.037l-.2-.144-.2.144a.033.033,0,0,1-.051-.037l.074-.235-.2-.147a.033.033,0,0,1,.02-.06l.247,0,.078-.234A.033.033,0,0,1,78.145,190.238Z" transform="translate(-75.822 -184.102)"/><path class="a" d="M78.145,239.51l.078.234.247,0a.033.033,0,0,1,.02.06l-.2.147.074.235a.033.033,0,0,1-.051.037l-.2-.144-.2.144a.033.033,0,0,1-.051-.037l.074-.235-.2-.147a.033.033,0,0,1,.02-.06l.247,0,.078-.234A.033.033,0,0,1,78.145,239.51Z" transform="translate(-75.822 -231.562)"/><path class="a" d="M104.008,49.185l.078.234.247,0a.033.033,0,0,1,.019.06l-.2.147.074.235a.033.033,0,0,1-.051.037l-.2-.144-.2.144a.033.033,0,0,1-.051-.037l.074-.235-.2-.147a.033.033,0,0,1,.02-.06l.247,0,.078-.234A.033.033,0,0,1,104.008,49.185Z" transform="translate(-100.732 -48.237)"/><path class="a" d="M104.008,108.118l.078.234.247,0a.033.033,0,0,1,.019.06l-.2.147.074.235a.033.033,0,0,1-.051.037l-.2-.144-.2.144a.033.033,0,0,1-.051-.037l.074-.235-.2-.147a.033.033,0,0,1,.02-.06l.247,0,.078-.234A.033.033,0,0,1,104.008,108.118Z" transform="translate(-100.732 -105.002)"/><path class="a" d="M104.008,164.11l.078.234.247,0a.033.033,0,0,1,.019.06l-.2.147.074.235a.033.033,0,0,1-.051.037l-.2-.144-.2.144a.033.033,0,0,1-.051-.037l.074-.235-.2-.147a.033.033,0,0,1,.02-.06l.247,0,.078-.234A.033.033,0,0,1,104.008,164.11Z" transform="translate(-100.732 -158.935)"/><path class="a" d="M104.008,214.391l.078.234.247,0a.033.033,0,0,1,.019.06l-.2.147.074.235a.033.033,0,0,1-.051.037l-.2-.144-.2.144a.033.033,0,0,1-.051-.037l.074-.235-.2-.147a.033.033,0,0,1,.02-.06l.247,0,.078-.234A.033.033,0,0,1,104.008,214.391Z" transform="translate(-100.732 -207.366)"/><path class="a" d="M129.871,24.023l.078.234.247,0a.033.033,0,0,1,.02.06l-.2.147.074.235a.033.033,0,0,1-.051.037l-.2-.144-.2.144a.033.033,0,0,1-.051-.037l.074-.235-.2-.147a.033.033,0,0,1,.02-.06l.247,0,.078-.234A.033.033,0,0,1,129.871,24.023Z" transform="translate(-125.645 -24)"/><path class="a" d="M129.872,77.159l.078.234.247,0a.033.033,0,0,1,.02.06l-.2.147.075.235a.033.033,0,0,1-.051.037l-.2-.144-.2.144a.033.033,0,0,1-.051-.037l.074-.235-.2-.147a.033.033,0,0,1,.02-.06l.247,0,.078-.234A.033.033,0,0,1,129.872,77.159Z" transform="translate(-125.646 -75.182)"/><path class="a" d="M129.871,136.092l.078.234.247,0a.033.033,0,0,1,.02.06l-.2.147.074.235a.033.033,0,0,1-.051.037l-.2-.144-.2.144a.033.033,0,0,1-.051-.037l.074-.235-.2-.147a.033.033,0,0,1,.02-.06l.247,0,.078-.234A.033.033,0,0,1,129.871,136.092Z" transform="translate(-125.645 -131.947)"/><path class="a" d="M129.871,190.238l.078.234.247,0a.033.033,0,0,1,.02.06l-.2.147.074.235a.033.033,0,0,1-.051.037l-.2-.144-.2.144a.033.033,0,0,1-.051-.037l.074-.235-.2-.147a.033.033,0,0,1,.02-.06l.247,0,.078-.234A.033.033,0,0,1,129.871,190.238Z" transform="translate(-125.645 -184.102)"/><path class="a" d="M129.871,239.51l.078.234.247,0a.033.033,0,0,1,.02.06l-.2.147.074.235a.033.033,0,0,1-.051.037l-.2-.144-.2.144a.033.033,0,0,1-.051-.037l.074-.235-.2-.147a.033.033,0,0,1,.02-.06l.247,0,.078-.234A.033.033,0,0,1,129.871,239.51Z" transform="translate(-125.645 -231.562)"/><path class="a" d="M155.734,49.185l.078.234.247,0a.033.033,0,0,1,.02.06l-.2.147.074.235a.033.033,0,0,1-.051.037l-.2-.144-.2.144a.033.033,0,0,1-.051-.037l.074-.235-.2-.147a.033.033,0,0,1,.02-.06l.247,0,.078-.234A.033.033,0,0,1,155.734,49.185Z" transform="translate(-150.556 -48.237)"/><path class="a" d="M155.734,108.118l.078.234.247,0a.033.033,0,0,1,.02.06l-.2.147.074.235a.033.033,0,0,1-.051.037l-.2-.144-.2.144a.033.033,0,0,1-.051-.037l.074-.235-.2-.147a.033.033,0,0,1,.02-.06l.247,0,.078-.234A.033.033,0,0,1,155.734,108.118Z" transform="translate(-150.556 -105.002)"/><path class="a" d="M155.734,164.11l.078.234.247,0a.033.033,0,0,1,.02.06l-.2.147.074.235a.033.033,0,0,1-.051.037l-.2-.144-.2.144a.033.033,0,0,1-.051-.037l.074-.235-.2-.147a.033.033,0,0,1,.02-.06l.247,0,.078-.234A.033.033,0,0,1,155.734,164.11Z" transform="translate(-150.556 -158.935)"/><path class="a" d="M155.734,214.391l.078.234.247,0a.033.033,0,0,1,.02.06l-.2.147.074.235a.033.033,0,0,1-.051.037l-.2-.144-.2.144a.033.033,0,0,1-.051-.037l.074-.235-.2-.147a.033.033,0,0,1,.02-.06l.247,0,.078-.234A.033.033,0,0,1,155.734,214.391Z" transform="translate(-150.556 -207.366)"/><path class="a" d="M181.6,24.023l.078.234.247,0a.033.033,0,0,1,.019.06l-.2.147.074.235a.033.033,0,0,1-.051.037l-.2-.144-.2.144a.033.033,0,0,1-.051-.037l.074-.235-.2-.147a.033.033,0,0,1,.02-.06l.247,0,.078-.234A.033.033,0,0,1,181.6,24.023Z" transform="translate(-175.467 -24)"/><path class="a" d="M181.6,77.159l.078.234.247,0a.033.033,0,0,1,.019.06l-.2.147.074.235a.033.033,0,0,1-.051.037l-.2-.144-.2.144a.033.033,0,0,1-.051-.037l.074-.235-.2-.147a.033.033,0,0,1,.02-.06l.247,0,.078-.234A.033.033,0,0,1,181.6,77.159Z" transform="translate(-175.467 -75.182)"/><path class="a" d="M181.6,136.092l.078.234.247,0a.033.033,0,0,1,.019.06l-.2.147.074.235a.033.033,0,0,1-.051.037l-.2-.144-.2.144a.033.033,0,0,1-.051-.037l.074-.235-.2-.147a.033.033,0,0,1,.02-.06l.247,0,.078-.234A.033.033,0,0,1,181.6,136.092Z" transform="translate(-175.467 -131.947)"/><path class="a" d="M181.6,190.238l.078.234.247,0a.033.033,0,0,1,.019.06l-.2.147.074.235a.033.033,0,0,1-.051.037l-.2-.144-.2.144a.033.033,0,0,1-.051-.037l.074-.235-.2-.147a.033.033,0,0,1,.02-.06l.247,0,.078-.234A.033.033,0,0,1,181.6,190.238Z" transform="translate(-175.467 -184.102)"/><path class="a" d="M181.6,239.51l.078.234.247,0a.033.033,0,0,1,.019.06l-.2.147.074.235a.033.033,0,0,1-.051.037l-.2-.144-.2.144a.033.033,0,0,1-.051-.037l.074-.235-.2-.147a.033.033,0,0,1,.02-.06l.247,0,.078-.234A.033.033,0,0,1,181.6,239.51Z" transform="translate(-175.467 -231.562)"/><path class="a" d="M207.46,49.185l.078.234.247,0a.033.033,0,0,1,.02.06l-.2.147.074.235a.033.033,0,0,1-.051.037l-.2-.144-.2.144a.033.033,0,0,1-.051-.037l.074-.235-.2-.147a.033.033,0,0,1,.02-.06l.247,0,.078-.234A.033.033,0,0,1,207.46,49.185Z" transform="translate(-200.379 -48.237)"/><path class="a" d="M207.46,108.118l.078.234.247,0a.033.033,0,0,1,.02.06l-.2.147.074.235a.033.033,0,0,1-.051.037l-.2-.144-.2.144a.033.033,0,0,1-.051-.037l.074-.235-.2-.147a.033.033,0,0,1,.02-.06l.247,0,.078-.234A.033.033,0,0,1,207.46,108.118Z" transform="translate(-200.379 -105.002)"/><path class="a" d="M207.46,164.11l.078.234.247,0a.033.033,0,0,1,.02.06l-.2.147.074.235a.033.033,0,0,1-.051.037l-.2-.144-.2.144a.033.033,0,0,1-.051-.037l.074-.235-.2-.147a.033.033,0,0,1,.02-.06l.247,0,.078-.234A.033.033,0,0,1,207.46,164.11Z" transform="translate(-200.379 -158.935)"/><path class="a" d="M207.46,214.391l.078.234.247,0a.033.033,0,0,1,.02.06l-.2.147.074.235a.033.033,0,0,1-.051.037l-.2-.144-.2.144a.033.033,0,0,1-.051-.037l.074-.235-.2-.147a.033.033,0,0,1,.02-.06l.247,0,.078-.234A.033.033,0,0,1,207.46,214.391Z" transform="translate(-200.379 -207.366)"/><path class="a" d="M233.323,24.023l.078.234.247,0a.033.033,0,0,1,.02.06l-.2.147.074.235a.033.033,0,0,1-.051.037l-.2-.144-.2.144a.033.033,0,0,1-.051-.037l.074-.235-.2-.147a.033.033,0,0,1,.019-.06l.247,0,.078-.234A.033.033,0,0,1,233.323,24.023Z" transform="translate(-225.291 -24)"/><path class="a" d="M233.323,77.159l.078.234.247,0a.033.033,0,0,1,.02.06l-.2.147.074.235a.033.033,0,0,1-.051.037l-.2-.144-.2.144a.033.033,0,0,1-.051-.037l.074-.235-.2-.147a.033.033,0,0,1,.019-.06l.247,0,.078-.234A.033.033,0,0,1,233.323,77.159Z" transform="translate(-225.291 -75.182)"/><path class="a" d="M233.323,136.092l.078.234.247,0a.033.033,0,0,1,.02.06l-.2.147.074.235a.033.033,0,0,1-.051.037l-.2-.144-.2.144a.033.033,0,0,1-.051-.037l.074-.235-.2-.147a.033.033,0,0,1,.019-.06l.247,0,.078-.234A.033.033,0,0,1,233.323,136.092Z" transform="translate(-225.291 -131.947)"/><path class="a" d="M233.323,190.238l.078.234.247,0a.033.033,0,0,1,.02.06l-.2.147.074.235a.033.033,0,0,1-.051.037l-.2-.144-.2.144a.033.033,0,0,1-.051-.037l.074-.235-.2-.147a.033.033,0,0,1,.019-.06l.247,0,.078-.234A.033.033,0,0,1,233.323,190.238Z" transform="translate(-225.291 -184.102)"/><path class="a" d="M233.323,239.51l.078.234.247,0a.033.033,0,0,1,.02.06l-.2.147.074.235a.033.033,0,0,1-.051.037l-.2-.144-.2.144a.033.033,0,0,1-.051-.037l.074-.235-.2-.147a.033.033,0,0,1,.019-.06l.247,0,.078-.234A.033.033,0,0,1,233.323,239.51Z" transform="translate(-225.291 -231.562)"/></g></svg>